# xmcd
#
# Track frame offsets:
#	150
#	30922
#	36875
#	52335
#	61780
#	70392
#	86477
#	95897
#	107702
#	118132
#	130470
#	140642
#	149180
#	163817
#	172180
#
# Disc length: 2518 seconds
#
# Revision: 2
# Processed by: cddbd v1.4PL0 Copyright (c) Steve Scherf et al.
# Submitted via: dBpowerAMP V4.0
#
DISCID=ef09d40f
DTITLE=Tommy Jarrell - Sail Away Ladies
DYEAR=1900
DGENRE=Oldtime
TTITLE0=The Drunken Hiccups
TTITLE1=Devil in the Strawstack
TTITLE2=Cluck Old Hen
TTITLE3=Forked Deer
TTITLE4=The Joke on the Puppy
TTITLE5=Step Back Cindy
TTITLE6=Flatwoods
TTITLE7=Soldier's Joy
TTITLE8=Bonaparte's Retreat
TTITLE9=Greasy String
TTITLE10=Fisher's Hornpipe
TTITLE11=Sail Away Ladies
TTITLE12=Cotton Eyed Joe
TTITLE13=Rochester Schottische/Walking in the Parlor
TTITLE14=Raliegh and Spencer
EXTD=
EXTT0=
EXTT1=
EXTT2=
EXTT3=
EXTT4=
EXTT5=
EXTT6=
EXTT7=
EXTT8=
EXTT9=
EXTT10=
EXTT11=
EXTT12=
EXTT13=
EXTT14=
PLAYORDER=
